<svg width="12" height="12" viewBox="0 0 12 12" fill="none" xmlns="http://www.w3.org/2000/svg">
<path d="M6 0C4.81326 2.54455e-08 3.65317 0.351925 2.66645 1.01127C1.67973 1.67061 0.910696 2.60776 0.456607 3.70419C0.00251732 4.80061 -0.11623 6.00708 0.115382 7.171C0.346994 8.33492 0.918562 9.40401 1.7578 10.2431C2.59704 11.0821 3.66625 11.6535 4.83022 11.8849C5.99419 12.1162 7.20063 11.9972 8.29696 11.5429C9.3933 11.0886 10.3303 10.3194 10.9894 9.33252C11.6486 8.34566 12.0002 7.1855 12 5.99876C11.998 4.40818 11.3652 2.88333 10.2404 1.75874C9.11556 0.634142 7.59058 0.00164398 6 0ZM6 1.59163C6.0538 1.59062 6.10725 1.60047 6.15715 1.62059C6.20705 1.64072 6.25238 1.6707 6.29043 1.70874C6.32848 1.74679 6.35846 1.79212 6.37858 1.84202C6.3987 1.89193 6.40855 1.94537 6.40754 1.99917V5.6024H9.20066C9.30677 5.6024 9.40854 5.64455 9.48356 5.71958C9.55859 5.79461 9.60075 5.89638 9.60075 6.00248C9.60075 6.10859 9.55859 6.21036 9.48356 6.28539C9.40854 6.36042 9.30677 6.40257 9.20066 6.40257H6C5.89432 6.40224 5.79307 6.36011 5.71834 6.28539C5.64361 6.21066 5.60149 6.10941 5.60116 6.00373V1.99917C5.60017 1.94663 5.60955 1.89441 5.62874 1.84549C5.64794 1.79657 5.67659 1.75191 5.71305 1.71407C5.74951 1.67622 5.79307 1.64593 5.84124 1.62492C5.88941 1.60392 5.94125 1.5926 5.99379 1.59163H6Z" fill="#BDBDBD"/>
</svg>
