<svg width="16" height="16" viewBox="0 0 16 16" fill="none" xmlns="http://www.w3.org/2000/svg">
	<g clip-path="url(#clip0_334_2073)">
		<path fill-rule="evenodd" clip-rule="evenodd" d="M0.666667 2C1.03486 2 1.33333 2.29848 1.33333 2.66667V6H4.66667C5.03486 6 5.33333 6.29848 5.33333 6.66667C5.33333 7.03486 5.03486 7.33333 4.66667 7.33333H0.666667C0.298477 7.33333 0 7.03486 0 6.66667L0 2.66667C0 2.29848 0.298477 2 0.666667 2Z" fill="#474747"/>
		<path fill-rule="evenodd" clip-rule="evenodd" d="M10.6641 9.33268C10.6641 8.96449 10.9625 8.66602 11.3307 8.66602H15.3307C15.6989 8.66602 15.9974 8.96449 15.9974 9.33268V13.3327C15.9974 13.7009 15.6989 13.9993 15.3307 13.9993C14.9625 13.9993 14.6641 13.7009 14.6641 13.3327V9.99935H11.3307C10.9625 9.99935 10.6641 9.70087 10.6641 9.33268Z" fill="#474747"/>
		<path fill-rule="evenodd" clip-rule="evenodd" d="M6.1513 1.59651C7.23311 1.2836 8.37655 1.24983 9.47493 1.49835C10.5733 1.74687 11.5908 2.26959 12.4326 3.01773C13.2743 3.76586 13.9128 4.71504 14.2885 5.77668C14.4113 6.12377 14.2295 6.50472 13.8824 6.62755C13.5353 6.75038 13.1544 6.56857 13.0315 6.22147C12.731 5.37216 12.2202 4.61282 11.5468 4.01431C10.8734 3.4158 10.0594 2.99763 9.18069 2.79881C8.30198 2.59999 7.38723 2.62701 6.52178 2.87734C5.65634 3.12767 4.86841 3.59315 4.23152 4.23036C4.2266 4.23529 4.2216 4.24014 4.21652 4.24491L1.12319 7.15158C0.854867 7.4037 0.432961 7.39058 0.180833 7.12226C-0.0712944 6.85394 -0.0581685 6.43203 0.210151 6.17991L3.29607 3.28021C4.09084 2.48759 5.07293 1.90843 6.1513 1.59651ZM15.8192 8.87589C16.0713 9.14421 16.0582 9.56611 15.7899 9.81824L12.7039 12.718C11.9092 13.5106 10.9271 14.0897 9.8487 14.4016C8.7669 14.7146 7.62346 14.7483 6.52507 14.4998C5.42668 14.2513 4.40915 13.7286 3.56743 12.9804C2.7257 12.2323 2.0872 11.2831 1.71152 10.2215C1.5887 9.87437 1.77051 9.49342 2.1176 9.3706C2.4647 9.24777 2.84565 9.42958 2.96848 9.77668C3.26902 10.626 3.77982 11.3853 4.4532 11.9838C5.12658 12.5823 5.94061 13.0005 6.81932 13.1993C7.69802 13.3982 8.61278 13.3711 9.47822 13.1208C10.3437 12.8705 11.1316 12.405 11.7685 11.7678C11.7714 11.7648 11.7744 11.7619 11.7774 11.759C11.7794 11.7571 11.7815 11.7551 11.7835 11.7532L14.8768 8.84657C15.1451 8.59444 15.567 8.60757 15.8192 8.87589Z" fill="#474747"/>
	</g>
	<defs>
		<clipPath id="clip0_334_2073">
			<rect width="16" height="16" fill="white"/>
		</clipPath>
	</defs>
</svg>
